<svg width="21" height="21" viewBox="0 0 21 21" fill="none" xmlns="http://www.w3.org/2000/svg">
<path d="M19.2927 20.7063C19.6832 21.0968 20.3164 21.0968 20.707 20.7063C21.0975 20.3158 21.0975 19.6827 20.707 19.2922L19.2927 20.7063ZM14.1606 14.1608L13.4535 14.8679L16.3731 17.7871L17.0802 17.0801L17.7874 16.373L14.8678 13.4538L14.1606 14.1608ZM17.0802 17.0801L16.3731 17.7871L19.2927 20.7063L19.9998 19.9993L20.707 19.2922L17.7874 16.373L17.0802 17.0801Z" fill="#FF8400"/>
<path d="M9.0127 1C13.4371 1.00016 17.0234 4.58723 17.0234 9.01172C17.0233 13.4361 13.437 17.0223 9.0127 17.0225C4.58821 17.0225 1.00114 13.4362 1.00098 9.01172C1.00098 4.58713 4.58811 1 9.0127 1Z" stroke="#FF8400" stroke-width="2"/>
</svg>
