<svg width="28" height="28" viewBox="0 0 28 28" fill="none" xmlns="http://www.w3.org/2000/svg">
<path fill-rule="evenodd" clip-rule="evenodd" d="M18.2111 20.5133H10.4577C9.90574 20.5133 9.45774 20.0653 9.45774 19.5133C9.45774 18.9613 9.90574 18.5133 10.4577 18.5133H18.2111C18.7631 18.5133 19.2111 18.9613 19.2111 19.5133C19.2111 20.0653 18.7631 20.5133 18.2111 20.5133ZM23.9991 6.21067C23.5151 5.784 22.9645 5.30133 22.3085 4.69467C22.0111 4.45467 21.6858 4.18 21.3405 3.88933C19.3938 2.248 16.7271 0 14.2965 0C11.8938 0 9.39908 2.12267 7.39508 3.828C7.02441 4.14267 6.67774 4.43867 6.32441 4.72533C5.70308 5.30133 5.15241 5.78533 4.66708 6.21333C1.48441 9.01467 0.885742 9.74933 0.885742 16.284C0.885742 28 4.27374 28 14.3338 28C24.3925 28 27.7818 28 27.7818 16.284C27.7818 9.748 27.1831 9.01333 23.9991 6.21067Z" fill="#A8A8A8"/>
</svg>
