<svg width="32" height="32" viewBox="0 0 32 32" fill="none" xmlns="http://www.w3.org/2000/svg">
<path d="M15.9911 2.66675C22.208 2.66675 27.3332 7.62394 27.3332 13.7571C27.3332 16.8477 26.2092 19.7169 24.3592 22.1488C22.3182 24.8314 19.8027 27.1687 16.9712 29.0033C16.3232 29.4273 15.7383 29.4593 15.0271 29.0033C12.1795 27.1687 9.66395 24.8314 7.6405 22.1488C5.78915 19.7169 4.6665 16.8477 4.6665 13.7571C4.6665 7.62394 9.79168 2.66675 15.9911 2.66675ZM15.9911 10.3692C13.9354 10.3692 12.2588 12.0638 12.2588 14.1024C12.2588 16.157 13.9354 17.773 15.9911 17.773C18.0482 17.773 19.7409 16.157 19.7409 14.1024C19.7409 12.0638 18.0482 10.3692 15.9911 10.3692Z" fill="#FF8400"/>
</svg>
