<svg width="32" height="32" viewBox="0 0 32 32" fill="none" xmlns="http://www.w3.org/2000/svg">
<path fill-rule="evenodd" clip-rule="evenodd" d="M20.9025 13.2907H11.7625C11.2105 13.2907 10.7625 12.8427 10.7625 12.2907C10.7625 11.7387 11.2105 11.2907 11.7625 11.2907H20.9025C21.4545 11.2907 21.9025 11.7387 21.9025 12.2907C21.9025 12.8427 21.4545 13.2907 20.9025 13.2907ZM26.9585 17.3201L26.9545 14.5721C26.9545 4.44675 25.3665 2.66675 16.3332 2.66675C7.29983 2.66675 5.71183 4.44675 5.71183 14.5721L5.70783 17.3201C5.69583 24.8201 5.69049 27.6281 6.83583 28.7734C7.20649 29.1454 7.69849 29.3334 8.29716 29.3334C9.57049 29.3334 10.9865 28.1241 12.4865 26.8427C13.8145 25.7081 15.3198 24.4227 16.3332 24.4227C17.3465 24.4227 18.8518 25.7081 20.1798 26.8427C21.6798 28.1241 23.0958 29.3334 24.3692 29.3334C24.9678 29.3334 25.4598 29.1454 25.8305 28.7734C26.9758 27.6281 26.9705 24.8201 26.9585 17.3201Z" fill="#FF8400"/>
</svg>
