<svg width="78" height="78" viewBox="0 0 78 78" fill="none" xmlns="http://www.w3.org/2000/svg">
<g filter="url(#filter0_d_614_3005)">
<rect x="20" y="20" width="38" height="38" rx="19" fill="#FF8400" shape-rendering="crispEdges"/>
<rect x="21" y="21" width="36" height="36" rx="18" stroke="#F0F0F0" stroke-width="2" shape-rendering="crispEdges"/>
<path d="M36.1844 44.5H33.5906L30.6219 36.0156H33.0594L34.8406 42.1094H34.9344L36.7156 36.0156H39.1687L36.1844 44.5ZM44.7375 38.5312C44.6906 38.2344 44.5422 37.9974 44.2922 37.8203C44.0422 37.638 43.7271 37.5469 43.3469 37.5469C43.0969 37.5469 42.8703 37.5859 42.6672 37.6641C42.4693 37.737 42.313 37.8411 42.1984 37.9766C42.0839 38.1068 42.0292 38.2552 42.0344 38.4219C42.0188 38.8229 42.3833 39.1042 43.1281 39.2656L44.6438 39.5781C45.4667 39.75 46.0786 40.0234 46.4797 40.3984C46.8859 40.7734 47.0917 41.2656 47.0969 41.875C47.0917 42.4271 46.9302 42.9141 46.6125 43.3359C46.3 43.7578 45.8599 44.0859 45.2922 44.3203C44.7245 44.5547 44.0708 44.6719 43.3313 44.6719C42.576 44.6719 41.9224 44.5651 41.3703 44.3516C40.8182 44.1328 40.3833 43.8229 40.0656 43.4219C39.7531 43.0156 39.5656 42.5365 39.5031 41.9844H41.8313C41.8833 42.3177 42.0396 42.5703 42.3 42.7422C42.5604 42.9141 42.9042 43 43.3313 43C43.7531 43 44.0917 42.9193 44.3469 42.7578C44.6073 42.5964 44.7375 42.3802 44.7375 42.1094C44.7375 41.8906 44.6438 41.7135 44.4563 41.5781C44.274 41.4375 43.9823 41.3229 43.5813 41.2344L42.175 40.9531C41.3729 40.7969 40.7635 40.513 40.3469 40.1016C39.9302 39.6901 39.7271 39.1719 39.7375 38.5469C39.7323 38.0104 39.8755 37.5443 40.1672 37.1484C40.4589 36.7474 40.8755 36.4401 41.4172 36.2266C41.9589 36.013 42.5917 35.9062 43.3156 35.9062C44.0188 35.9062 44.6333 36.013 45.1594 36.2266C45.6854 36.4401 46.0969 36.7448 46.3938 37.1406C46.6958 37.5312 46.8677 37.9948 46.9094 38.5312H44.7375Z" fill="#FAFAFA"/>
</g>
<defs>
<filter id="filter0_d_614_3005" x="0" y="0" width="78" height="78" filterUnits="userSpaceOnUse" color-interpolation-filters="sRGB">
<feFlood flood-opacity="0" result="BackgroundImageFix"/>
<feColorMatrix in="SourceAlpha" type="matrix" values="0 0 0 0 0 0 0 0 0 0 0 0 0 0 0 0 0 0 127 0" result="hardAlpha"/>
<feOffset/>
<feGaussianBlur stdDeviation="10"/>
<feComposite in2="hardAlpha" operator="out"/>
<feColorMatrix type="matrix" values="0 0 0 0 1 0 0 0 0 1 0 0 0 0 1 0 0 0 1 0"/>
<feBlend mode="normal" in2="BackgroundImageFix" result="effect1_dropShadow_614_3005"/>
<feBlend mode="normal" in="SourceGraphic" in2="effect1_dropShadow_614_3005" result="shape"/>
</filter>
</defs>
</svg>
