<svg width="32" height="32" viewBox="0 0 32 32" fill="none" xmlns="http://www.w3.org/2000/svg">
<path fill-rule="evenodd" clip-rule="evenodd" d="M20.2111 22.5133H12.4577C11.9057 22.5133 11.4577 22.0653 11.4577 21.5133C11.4577 20.9613 11.9057 20.5133 12.4577 20.5133H20.2111C20.7631 20.5133 21.2111 20.9613 21.2111 21.5133C21.2111 22.0653 20.7631 22.5133 20.2111 22.5133ZM25.9991 8.21067C25.5151 7.784 24.9645 7.30133 24.3085 6.69467C24.0111 6.45467 23.6858 6.18 23.3405 5.88933C21.3938 4.248 18.7271 2 16.2965 2C13.8938 2 11.3991 4.12267 9.39508 5.828C9.02441 6.14267 8.67774 6.43867 8.32441 6.72533C7.70308 7.30133 7.15241 7.78533 6.66708 8.21333C3.48441 11.0147 2.88574 11.7493 2.88574 18.284C2.88574 30 6.27374 30 16.3338 30C26.3925 30 29.7818 30 29.7818 18.284C29.7818 11.748 29.1831 11.0133 25.9991 8.21067Z" fill="#FF8400"/>
</svg>
